<?xml version="1.0" encoding="utf-8"?><svg viewBox="0 0 44 45" xmlns="http://www.w3.org/2000/svg" xmlns:xlink="http://www.w3.org/1999/xlink"><style>:root>svg{display:none}:root>svg:target{display:block}</style><svg fill="none" viewBox="0 0 20 19" id="cart" xmlns="http://www.w3.org/2000/svg"><path d="M20 6.579h-3.396L13.036.319a.608.608 0 00-.858-.225.678.678 0 00-.214.902l3.182 5.583H4.854L8.036.996a.678.678 0 00-.214-.902.608.608 0 00-.858.225L3.396 6.58H0v1.316h1.357l1.587 8.915c.166.934.941 1.611 1.844 1.611h10.424c.902 0 1.678-.677 1.843-1.61l1.588-8.916H20V6.579zm-4.174 9.99a.634.634 0 01-.614.536H4.788c-.301 0-.56-.225-.615-.537L2.628 7.895h14.744l-1.546 8.674z" fill="#fff"/></svg><svg fill="none" viewBox="0 0 25 25" id="cross" xmlns="http://www.w3.org/2000/svg"><path fill-rule="evenodd" clip-rule="evenodd" d="M24.053 24.864L.37.956 1.318 0 25 23.908l-.947.956z" fill="#000"/><path fill-rule="evenodd" clip-rule="evenodd" d="M24.63 1.092L.946 25 0 24.044 23.682.136l.947.956z" fill="#000"/></svg><svg fill="none" viewBox="0 0 44 45" id="insta" xmlns="http://www.w3.org/2000/svg"><mask id="ca" maskUnits="userSpaceOnUse" x="0" y="0" width="44" height="45"><path fill-rule="evenodd" clip-rule="evenodd" d="M0 22.486C0 10.4 9.85.6 22 .6s22 9.799 22 21.886c0 12.088-9.85 21.886-22 21.886S0 34.574 0 22.486z" fill="#fff"/></mask><g mask="url(#ca)" fill-rule="evenodd" clip-rule="evenodd"><path d="M0 22.486C0 10.4 9.85.6 22 .6s22 9.799 22 21.886c0 12.088-9.85 21.886-22 21.886S0 34.574 0 22.486z" fill="#0E5A4C"/><path d="M22.001 10.813c-3.187 0-3.587.014-4.838.07-1.25.058-2.102.255-2.848.543a5.748 5.748 0 00-2.078 1.346 5.725 5.725 0 00-1.355 2.068c-.29.742-.489 1.59-.545 2.833-.056 1.245-.07 1.643-.07 4.813s.014 3.567.07 4.812c.058 1.243.256 2.09.546 2.833.3.768.7 1.419 1.353 2.068a5.749 5.749 0 002.078 1.347c.746.289 1.6.486 2.848.542 1.252.057 1.651.07 4.838.07 3.186 0 3.585-.013 4.837-.07 1.249-.056 2.102-.253 2.849-.542a5.745 5.745 0 002.077-1.347 5.727 5.727 0 001.354-2.068c.289-.742.487-1.59.545-2.833.057-1.245.071-1.642.071-4.812 0-3.17-.014-3.568-.07-4.813-.06-1.243-.257-2.09-.546-2.833a5.726 5.726 0 00-1.354-2.068 5.737 5.737 0 00-2.078-1.346c-.748-.289-1.6-.485-2.85-.542-1.252-.057-1.65-.07-4.838-.07h.004zm-1.052 2.104H22c3.133 0 3.504.011 4.741.067 1.145.052 1.765.242 2.179.402a3.63 3.63 0 011.348.873c.411.409.665.798.878 1.343.161.41.352 1.028.405 2.166.056 1.23.068 1.6.068 4.716 0 3.115-.012 3.484-.069 4.715-.052 1.138-.243 1.756-.404 2.167a3.609 3.609 0 01-.878 1.34c-.41.41-.8.662-1.348.874-.413.16-1.034.35-2.178.402-1.237.056-1.609.068-4.742.068s-3.504-.012-4.741-.068c-1.144-.053-1.765-.243-2.179-.402a3.638 3.638 0 01-1.35-.873 3.617 3.617 0 01-.877-1.342c-.16-.411-.352-1.029-.404-2.167-.057-1.23-.068-1.6-.068-4.717 0-3.117.011-3.485.068-4.716.052-1.138.243-1.755.404-2.167.212-.545.467-.934.878-1.342.41-.409.802-.662 1.35-.874.413-.16 1.034-.35 2.178-.402 1.082-.049 1.502-.063 3.689-.066v.003zm7.315 1.938c-.777 0-1.408.627-1.408 1.4 0 .774.631 1.401 1.408 1.401.778 0 1.408-.627 1.408-1.4 0-.774-.63-1.401-1.408-1.401zm-6.263 1.637c-3.328 0-6.026 2.684-6.026 5.994 0 3.31 2.698 5.994 6.026 5.994s6.025-2.683 6.025-5.994c0-3.31-2.698-5.994-6.025-5.994zm0 2.103c2.16 0 3.911 1.742 3.911 3.891 0 2.15-1.75 3.891-3.91 3.891s-3.912-1.742-3.912-3.89c0-2.15 1.751-3.892 3.911-3.892z" fill="#fff"/></g></svg><svg fill="none" viewBox="0 0 26 20" id="show" xmlns="http://www.w3.org/2000/svg"><path clip-rule="evenodd" d="M16.952 10.066a3.952 3.952 0 11-7.904-.001 3.952 3.952 0 017.904.001z" stroke="#fff" stroke-width="1.5" stroke-linecap="round" stroke-linejoin="round"/><path clip-rule="evenodd" d="M12.998 19.194c4.76 0 9.113-3.423 11.565-9.128C22.11 4.361 17.758.94 12.998.94h.005c-4.76 0-9.114 3.422-11.566 9.127 2.452 5.705 6.805 9.128 11.566 9.128h-.005z" stroke="#fff" stroke-width="1.5" stroke-linecap="round" stroke-linejoin="round"/></svg><svg fill="none" viewBox="0 0 6 11" id="tooltip" xmlns="http://www.w3.org/2000/svg"><path d="M3.78 7.852H2.184a4.09 4.09 0 01.14-1.31c.121-.38.28-.691.476-.933.205-.25.41-.478.616-.682.205-.204.401-.427.588-.669.196-.25.327-.51.392-.78.075-.547-.037-.974-.336-1.28-.299-.317-.69-.474-1.176-.474-.364 0-.695.12-.994.362a1.447 1.447 0 00-.532.96H0C.037 2.147.313 1.465.826 1 1.349.535 2.03.303 2.87.303 3.645.284 4.321.475 4.9.874c.588.4.938.924 1.05 1.574.056.353.065.66.028.92-.037.333-.145.649-.322.946-.168.288-.36.543-.574.766-.205.223-.41.46-.616.71a2.934 2.934 0 00-.504.892c-.13.343-.191.733-.182 1.17zm-.154 2.2a.903.903 0 01-.644.237c-.261 0-.485-.079-.672-.237a.782.782 0 01-.266-.613c0-.25.089-.454.266-.612.187-.158.41-.237.672-.237.261 0 .476.079.644.237a.782.782 0 01.266.612c0 .251-.089.455-.266.613z" fill="#444B58"/></svg><svg fill="none" viewBox="0 0 20 20" id="trash" xmlns="http://www.w3.org/2000/svg"><path d="M18.572 2.857h-5v-.714C13.572.959 12.611 0 11.428 0H8.572C7.388 0 6.429.96 6.429 2.143v.714h-5a.714.714 0 100 1.429h.776L3.572 19.35c.033.369.343.65.714.649h11.428c.37.002.681-.28.715-.65l1.366-15.064h.776a.714.714 0 100-1.429zM7.857 2.143c0-.395.32-.714.715-.714h2.857c.394 0 .714.32.714.714v.714H7.857v-.714zm7.205 16.428H4.938L3.643 4.286H16.36L15.062 18.57z" fill="#4D4D4D" fill-opacity=".3"/><path d="M7.857 16.381v-.003l-.714-10a.716.716 0 00-1.429.101l.715 10a.714.714 0 00.714.664h.051a.714.714 0 00.663-.762zM10 5.714a.714.714 0 00-.714.715v10a.714.714 0 101.428 0v-10A.714.714 0 0010 5.714zM13.622 5.714a.716.716 0 00-.765.664l-.714 10a.714.714 0 00.66.764H12.856c.376.002.688-.288.715-.663l.715-10a.716.716 0 00-.664-.765z" fill="#4D4D4D" fill-opacity=".3"/></svg><svg fill="none" viewBox="0 0 44 45" id="vk" xmlns="http://www.w3.org/2000/svg"><path fill-rule="evenodd" clip-rule="evenodd" d="M0 22.486C0 10.4 9.85.6 22 .6s22 9.799 22 21.886c0 12.088-9.85 21.886-22 21.886S0 34.574 0 22.486z" fill="#0E5A4C"/><path fill-rule="evenodd" clip-rule="evenodd" d="M23.15 29.669s.424-.046.641-.274c.199-.208.192-.601.192-.601s-.027-1.838.847-2.109c.86-.266 1.966 1.777 3.14 2.562.885.595 1.558.465 1.558.465l3.134-.043s1.64-.099.862-1.357c-.064-.104-.453-.932-2.33-2.633-1.966-1.781-1.702-1.493.665-4.574 1.441-1.876 2.018-3.022 1.837-3.512-.17-.468-1.231-.344-1.231-.344l-3.528.021s-.262-.034-.456.079c-.19.11-.312.37-.312.37s-.558 1.451-1.303 2.686c-1.571 2.605-2.199 2.743-2.456 2.582-.598-.378-.449-1.516-.449-2.324 0-2.525.393-3.577-.763-3.85-.384-.09-.666-.15-1.647-.16-1.26-.012-2.324.004-2.928.293-.402.191-.712.62-.522.644.233.03.76.139 1.04.511.362.48.35 1.56.35 1.56s.207 2.971-.486 3.34c-.475.253-1.127-.263-2.528-2.627-.718-1.21-1.26-2.549-1.26-2.549s-.104-.25-.291-.384a1.466 1.466 0 00-.542-.213l-3.352.021s-.504.014-.689.228c-.164.19-.013.583-.013.583s2.625 5.997 5.598 9.02c2.726 2.77 5.82 2.589 5.82 2.589h1.403z" fill="#fff"/></svg></svg>